<svg xmlns="http://www.w3.org/2000/svg" xmlns:xlink="http://www.w3.org/1999/xlink" width="15px" height="15px" viewBox="0 0 15 15" version="1.1">
    <title>fold_partly</title>
    <g id="页面-1" stroke="none" stroke-width="1" fill="none" fill-rule="evenodd">
        <g id="组织架构" transform="translate(-427.000000, -460.000000)">
            <g id="编组-26" transform="translate(427.000000, 460.000000)">
                <circle id="Oval-5-Copy-3" fill="#96A7CC" cx="7.5" cy="7.5" r="7.5"/>
                <path d="M7.5,3 C7.77614237,3 8,3.22385763 8,3.5 L8,7 L11.5,7 C11.7761424,7 12,7.22385763 12,7.5 C12,7.77614237 11.7761424,8 11.5,8 L8,8 L8,11.5 C8,11.7761424 7.77614237,12 7.5,12 C7.22385763,12 7,11.7761424 7,11.5 L7,8 L3.5,8 C3.22385763,8 3,7.77614237 3,7.5 C3,7.22385763 3.22385763,7 3.5,7 L7,7 L7,3.5 C7,3.22385763 7.22385763,3 7.5,3 Z" id="形状结合" fill="#FFFFFF"/>
            </g>
        </g>
    </g>
</svg>