<!-- Generated by IcoMoon.io -->
<svg version="1.1" xmlns="http://www.w3.org/2000/svg" width="32" height="32" viewBox="0 0 32 26">
<title>fold_all</title>
<path fill="#4c84ff" d="M16 5.333c8.837 0 16 7.163 16 16v5.333h-32v-5.333c0-8.837 7.163-16 16-16z"></path>
<path fill="#fff" d="M20.862 18.471l-4.862-4.862-4.862 4.862c-0.26 0.26-0.682 0.26-0.943 0s-0.26-0.682 0-0.943l5.333-5.333c0.26-0.26 0.682-0.26 0.943-0l5.333 5.333c0.26 0.26 0.26 0.682 0 0.943s-0.682 0.26-0.943 0z"></path>
<path fill="#fff" d="M20.862 23.138l-4.862-4.862-4.862 4.862c-0.26 0.26-0.682 0.26-0.943 0s-0.26-0.682 0-0.943l5.333-5.333c0.26-0.26 0.682-0.26 0.943-0l5.333 5.333c0.26 0.26 0.26 0.682 0 0.943s-0.682 0.26-0.943 0z"></path>
</svg>
